<svg width="774" height="98" viewBox="0 0 774 98" fill="none" xmlns="http://www.w3.org/2000/svg">
<g clip-path="url(#clip0)">
<path d="M88.62 29.25C88.62 17.75 90.62 15.5 100.62 14.38V7.5H54.75V14.38C63.5 15.5 65.5 17.5 65.5 29.25V45.88H35.12V29.25C35.12 17.87 36.87 15.5 45.87 14.38V7.5H0V14.38C9.75 15.5 12 17.5 12 29.25V73.25C12 84.75 10 87 0 88.13V95H45.88V88.12C37.12 87 35.12 85 35.12 73.25V53.38H65.5V73.26C65.5 84.64 63.75 87.01 54.75 88.14V95H100.63V88.12C90.88 87 88.63 85 88.63 73.24V29.25H88.62ZM173.15 81.25C172.03 82.75 170.65 83.75 168.9 83.75C166.65 83.75 165.15 82.13 165.15 78.87V58C165.15 40.5 157.65 29.75 138.27 29.75C122.64 29.75 112.77 38.25 110.02 49.25L115.52 51.87C118.64 46.37 123.64 42.62 131.27 42.62C139.27 42.62 143.27 46.5 143.27 54.5V56.75L133.39 58.63C117.39 61.63 108.14 69.01 108.14 79.63C108.14 91.25 116.52 96.51 125.89 96.51C133.77 96.51 140.77 93.76 143.64 85.76H144.64C147.02 93.38 152.14 96.51 159.52 96.51C166.52 96.51 174.14 92.76 177.02 84.39L173.15 81.25ZM138.15 84.63C133.4 84.63 129.77 81.38 129.77 75.25C129.77 69 133.39 65.13 139.52 63.63L143.27 62.75V82.25C142.15 83.88 140.4 84.63 138.15 84.63ZM259.63 88.75C253.51 88.37 250.76 86.5 250.76 80.13V50C250.76 36.12 243.01 29.75 230.88 29.75C220 29.75 212.76 36.25 208.63 48.25L207.51 47.87C208.63 44.75 209.51 41.49 209.51 38.62V31.24H201.76L180.14 39.12V45.37C181.26 45.25 182.89 45.12 184.02 45.12C186.9 45.12 189.14 46.74 189.14 50V80.75C189.14 86.5 187.02 88.37 180.26 88.75V95H216.76V88.75C212.38 88.37 211.65 87.42 211.65 81.04L211.6 72.02L211.01 48.87C212.63 45.75 215.51 42.87 220.26 42.87C226.14 42.87 228.88 46.49 228.88 52.87L228.05 72.02L227.97 80.77C227.97 86.52 227.26 88.74 222.88 88.74V95H259.63V88.75ZM338.74 88.75C332.24 88.63 329.86 86 329.86 78.87V0H323.36L295.24 7.38V13.63C296.62 13.38 298.24 13.25 300.12 13.25C305.12 13.25 308 15.25 308 20.37V30.37C306.25 29.99 304.38 29.75 301.88 29.75C283.26 29.75 265.26 42 265.26 67C265.26 85.25 275.38 96.5 289.88 96.5C301.5 96.5 307.63 88.88 310.5 79.25L311.5 79.63C310.12 83.01 309.38 88.88 309.38 90.88V95H338.76V88.75H338.74ZM307.99 78.63C306.87 80.13 304.74 82.25 299.99 82.25C292.37 82.25 287.74 73.25 287.74 60.37C287.74 42.62 294.99 36.49 303.12 36.49C304.87 36.49 306.5 36.87 308 37.49V78.63H307.99ZM458.04 53H417.04V59.25L418.92 59.37C428.17 59.99 431.42 62.25 431.54 68.25V84.63C428.79 87.25 424.66 88.51 418.66 88.51C403.28 88.51 393.66 74.13 393.66 51.26C393.66 26.88 403.28 13.26 420.41 13.26C432.79 13.26 439.91 20.38 443.91 36.76H450.79V9.13C442.04 6.75 431.91 5.38 423.17 5.38C388.92 5.38 368.67 22.5 368.67 51.26C368.67 80.38 386.67 97.14 418.05 97.14C431.17 97.14 443.05 93.64 450.8 87.52V69.13C450.8 62.13 453.05 59.01 458.05 59.01V53H458.04ZM529.23 81.25C528.11 82.75 526.73 83.75 524.98 83.75C522.73 83.75 521.23 82.13 521.23 78.87V58C521.23 40.5 513.73 29.75 494.36 29.75C478.74 29.75 468.86 38.25 466.11 49.25L471.61 51.87C474.73 46.37 479.73 42.62 487.36 42.62C495.36 42.62 499.36 46.5 499.36 54.5V56.75L489.48 58.63C473.48 61.63 464.23 69.01 464.23 79.63C464.23 91.25 472.61 96.51 481.98 96.51C489.86 96.51 496.86 93.76 499.73 85.76H500.73C503.11 93.38 508.23 96.51 515.6 96.51C522.6 96.51 530.22 92.76 533.1 84.39L529.23 81.25ZM494.23 84.63C489.48 84.63 485.85 81.38 485.85 75.25C485.85 69 489.47 65.13 495.6 63.63L499.35 62.75V82.25C498.23 83.88 496.48 84.63 494.23 84.63ZM650.71 88.75C644.59 88.37 641.83 86.5 641.83 80.13V50.63C641.83 36.38 634.83 29.75 623.71 29.75C614.71 29.75 608.09 34.88 604.46 44H603.96C602.08 34 595.58 29.75 586.84 29.75C575.72 29.75 568.96 36.5 564.72 48.13L563.72 47.75C564.72 44.87 565.6 41.87 565.6 38.63V31.25H557.85L536.23 39.13V45.38C537.11 45.26 538.11 45.13 539.35 45.13C542.47 45.13 545.23 46.25 545.23 50.01V80.76C545.23 86.51 543.11 88.38 536.35 88.76V95H572.85V88.75C568.47 88.37 567.1 87.37 567.1 82V48.88C567.98 46.63 571.1 42.88 575.48 42.88C580.6 42.88 582.6 46.63 582.6 52.88V82.63C582.6 87.01 580.48 88.75 576.72 88.75V95H610.22V88.75C605.84 88.37 604.47 87.13 604.47 80.75V48.25C605.85 44.75 608.97 42.87 612.72 42.87C617.97 42.87 619.97 46.62 619.97 52.87V80.75C619.97 86.5 618.35 88.75 613.97 88.75V95H650.72V88.75H650.71ZM692.51 79.75C683.39 79.75 675.63 74.13 673.89 60.25H714.01C714.01 38.63 701.39 29.75 686.13 29.75C667.38 29.75 655.75 43.88 655.75 65C655.75 83 668.75 96.5 686.13 96.5C704.51 96.5 711.75 83.62 714.01 74.88L708.89 72.26C705.26 76.75 701.39 79.75 692.51 79.75ZM683.01 36.5C689.63 36.5 691.76 42.25 691.76 53H673.51C673.64 40.63 677.14 36.5 683.01 36.5ZM745.26 96.75C762.51 96.75 773.51 88 773.51 73.63C773.51 63.25 767.26 58.75 760.76 56.01L744.64 49.13C740.39 47.25 739.14 45.51 739.14 42.63C739.14 39.38 742.02 37.01 747.52 37.01C753.9 37.01 761.52 40.01 764.9 49.76H771.02V34.76C766.02 31.76 756.64 29.51 749.77 29.51C733.89 29.51 722.77 37.64 722.77 51.64C722.77 62.76 731.27 67.39 738.02 70.26L752.27 76.38C756.39 78.13 757.27 80 757.27 82.63C757.27 87.75 752.02 88.63 747.89 88.63C738.89 88.63 731.39 82.51 729.39 74.13H722.89V90.88C729.64 95.13 737.89 96.75 745.26 96.75Z" fill="#0A5DFF"/>
<path d="M213.93 90.6895C212.63 90.6895 211.58 89.6395 211.58 88.3395V73.6195C211.58 72.3195 212.63 71.2695 213.93 71.2695C215.23 71.2695 216.28 72.3195 216.28 73.6195V88.3295C216.28 89.6295 215.23 90.6895 213.93 90.6895Z" stroke="#0A5DFF" stroke-width="1.5" stroke-miterlimit="10"/>
<path d="M215.41 72.0317V48.9617C215.41 47.7417 214.42 46.7617 213.21 46.7617C211.99 46.7617 211.01 47.7517 211.01 48.9617V72.0217" stroke="#0A5DFF" stroke-width="1.2059" stroke-miterlimit="10"/>
<path d="M219.82 72.0309V47.9109C219.82 46.6909 218.83 45.7109 217.62 45.7109C216.4 45.7109 215.42 46.7009 215.42 47.9109V72.0309" stroke="#0A5DFF" stroke-width="1.5" stroke-miterlimit="10"/>
<path d="M224.22 72.0309V47.9109C224.22 46.6909 223.23 45.7109 222.02 45.7109C220.81 45.7109 219.82 46.7009 219.82 47.9109V72.0309" stroke="#0A5DFF" stroke-width="1.5" stroke-miterlimit="10"/>
<path d="M228.63 72.0311V51.8211C228.63 50.6011 227.64 49.6211 226.43 49.6211C225.21 49.6211 224.23 50.6111 224.23 51.8211V72.0311" stroke="#0A5DFF" stroke-width="1.5" stroke-miterlimit="10"/>
<path d="M211.57 46.3097L215.41 47.9097L216.38 45.6997L218.58 45.9397L219.88 47.0797L222.02 45.6997L223.9 46.7597L224.71 50.4497L226.43 49.6097L229.21 51.6497V40.4297H218.93L211.57 46.3097Z" fill="#0A5DFF"/>
</g>
<defs>
<clipPath id="clip0">
<rect width="773.51" height="97.13" fill="white"/>
</clipPath>
</defs>
</svg>
