<svg width="36" height="70" viewBox="0 0 36 70" fill="none" xmlns="http://www.w3.org/2000/svg">
<path d="M16.9995 64.5898L16.9995 47.3965" stroke="#261C8A" stroke-width="2"/>
<path d="M17.1924 64.5898C17.1924 67.1689 18.9117 68.0285 20.6311 68.0285C22.3504 68.0285 24.0697 67.1689 24.0697 64.5898" stroke="#261C8A" stroke-width="2"/>
<path d="M24.2652 47C26.7948 43.8765 31.5167 34.3926 30.1676 21.4444C28.8184 8.4963 26.2333 2.41975 25.9523 1H8.24439C5.43373 8.09877 0.486958 25.0222 3.18519 35.9259" stroke="#261C8A" stroke-width="2"/>
<path d="M24.0698 64.5898L24.0698 47.3965" stroke="#261C8A" stroke-width="2"/>
<path d="M24.4052 46.9978C21.4051 48.4974 16.6661 47.0966 20.9491 39.3222C26.791 28.718 15.2057 18.0288 16.3328 15.5869" stroke="#261C8A" stroke-width="2"/>
<rect x="5.81842" y="26.2766" width="4.87735" height="16.9127" rx="2.43868" transform="rotate(15.729 5.81842 26.2766)" stroke="#261C8A" stroke-width="2"/>
<rect x="10.9766" y="29.7141" width="4.87735" height="16.9127" rx="2.43868" transform="rotate(15.729 10.9766 29.7141)" stroke="#261C8A" stroke-width="2"/>
<rect x="16.1343" y="33.1555" width="4.87735" height="16.9127" rx="2.43868" transform="rotate(15.729 16.1343 33.1555)" stroke="#261C8A" stroke-width="2"/>
</svg>
